{
    "asset": {
        "version": "2.0",
        "generator": "Open Asset Import Library (assimp v5.4.0)"
    },
    "extensionsUsed": [
        "KHR_materials_volume",
        "FB_ngon_encoding"
    ],
    "accessors": [
        {
            "bufferView": 0,
            "byteOffset": 0,
            "componentType": 5126,
            "count": 5058,
            "type": "VEC3",
            "max": [
                1.9946939945220947,
                7.390607833862305,
                1.9998500347137451
            ],
            "min": [
                -1.9760459661483765,
                -7.468531131744385,
                -0.988431990146637
            ]
        },
        {
            "bufferView": 1,
            "byteOffset": 0,
            "componentType": 5126,
            "count": 5058,
            "type": "VEC3",
            "max": [
                0.9998957514762878,
                0.9938837885856628,
                0.9999823570251465
            ],
            "min": [
                -0.9999185800552368,
                -0.9999950528144836,
                -0.9999421238899231
            ]
        },
        {
            "bufferView": 2,
            "byteOffset": 0,
            "componentType": 5126,
            "count": 5058,
            "type": "VEC2",
            "max": [
                0.9997484683990479,
                0.9381981492042542
            ],
            "min": [
                0.00025485455989837646,
                0.0000017285346984863281
            ]
        },
        {
            "bufferView": 3,
            "byteOffset": 0,
            "componentType": 5126,
            "count": 5058,
            "type": "VEC4",
            "max": [
                1.0,
                1.0,
                1.0,
                1.0
            ],
            "min": [
                1.0,
                1.0,
                1.0,
                1.0
            ]
        },
        {
            "bufferView": 4,
            "byteOffset": 0,
            "componentType": 5125,
            "count": 25674,
            "type": "SCALAR",
            "max": [
                5057
            ],
            "min": [
                0
            ]
        }
    ],
    "buffers": [
        {
            "byteLength": 345480,
            "uri": "human_female_0.bin"
        }
    ],
    "bufferViews": [
        {
            "buffer": 0,
            "byteOffset": 0,
            "byteLength": 60696,
            "target": 34962
        },
        {
            "buffer": 0,
            "byteOffset": 60696,
            "byteLength": 60696,
            "target": 34962
        },
        {
            "buffer": 0,
            "byteOffset": 121392,
            "byteLength": 40464,
            "target": 34962
        },
        {
            "buffer": 0,
            "byteOffset": 161856,
            "byteLength": 80928,
            "target": 34962
        },
        {
            "buffer": 0,
            "byteOffset": 242784,
            "byteLength": 102696,
            "target": 34963
        }
    ],
    "images": [
        {
            "uri": "textures/image_0.png"
        }
    ],
    "materials": [
        {
            "name": "61",
            "pbrMetallicRoughness": {
                "baseColorTexture": {
                    "index": 0
                },
                "metallicFactor": 0.0
            },
            "doubleSided": true
        }
    ],
    "meshes": [
        {
            "name": "meshes[0]",
            "primitives": [
                {
                    "mode": 4,
                    "material": 0,
                    "indices": 4,
                    "attributes": {
                        "POSITION": 0,
                        "NORMAL": 1,
                        "TEXCOORD_0": 2,
                        "COLOR_0": 3
                    }
                }
            ]
        }
    ],
    "nodes": [
        {
            "name": "human_female",
            "children": [
                1
            ]
        },
        {
            "name": "root",
            "children": [
                2
            ],
            "extras": {
                "name": "root"
            }
        },
        {
            "name": "mesh_id33",
            "matrix": [
                0.04141869395971298,
                0.0,
                0.0,
                0.0,
                0.0,
                0.04141869395971298,
                0.0,
                0.0,
                0.0,
                0.0,
                0.04141869395971298,
                0.0,
                0.02342063933610916,
                0.0179829690605402,
                0.19758351147174835,
                1.0
            ],
            "mesh": 0
        }
    ],
    "samplers": [
        {
            "magFilter": 9729,
            "minFilter": 9985
        }
    ],
    "scenes": [
        {
            "nodes": [
                0
            ]
        }
    ],
    "textures": [
        {
            "source": 0,
            "sampler": 0
        }
    ],
    "scene": 0
}