{
    "asset": {
        "version": "2.0",
        "generator": "Open Asset Import Library (assimp v5.4.0)"
    },
    "extensionsUsed": [
        "KHR_materials_volume",
        "FB_ngon_encoding"
    ],
    "accessors": [
        {
            "bufferView": 0,
            "byteOffset": 0,
            "componentType": 5126,
            "count": 5052,
            "type": "VEC3",
            "max": [
                2.2561769485473633,
                7.86088228225708,
                1.7499704360961914
            ],
            "min": [
                -2.2601356506347656,
                -8.089133262634277,
                -1.7443852424621582
            ]
        },
        {
            "bufferView": 1,
            "byteOffset": 0,
            "componentType": 5126,
            "count": 5052,
            "type": "VEC3",
            "max": [
                0.9996253252029419,
                0.9996951818466187,
                0.9997720122337341
            ],
            "min": [
                -0.9999966621398926,
                -0.9999999403953552,
                -0.9993693828582764
            ]
        },
        {
            "bufferView": 2,
            "byteOffset": 0,
            "componentType": 5126,
            "count": 5052,
            "type": "VEC2",
            "max": [
                0.9999035596847534,
                0.9769497513771057
            ],
            "min": [
                0.00005871802568435669,
                0.00008952617645263672
            ]
        },
        {
            "bufferView": 3,
            "byteOffset": 0,
            "componentType": 5126,
            "count": 5052,
            "type": "VEC4",
            "max": [
                1.0,
                1.0,
                1.0,
                1.0
            ],
            "min": [
                1.0,
                1.0,
                1.0,
                1.0
            ]
        },
        {
            "bufferView": 4,
            "byteOffset": 0,
            "componentType": 5125,
            "count": 25566,
            "type": "SCALAR",
            "max": [
                5051
            ],
            "min": [
                0
            ]
        }
    ],
    "buffers": [
        {
            "byteLength": 344760,
            "uri": "human_male_0.bin"
        }
    ],
    "bufferViews": [
        {
            "buffer": 0,
            "byteOffset": 0,
            "byteLength": 60624,
            "target": 34962
        },
        {
            "buffer": 0,
            "byteOffset": 60624,
            "byteLength": 60624,
            "target": 34962
        },
        {
            "buffer": 0,
            "byteOffset": 121248,
            "byteLength": 40416,
            "target": 34962
        },
        {
            "buffer": 0,
            "byteOffset": 161664,
            "byteLength": 80832,
            "target": 34962
        },
        {
            "buffer": 0,
            "byteOffset": 242496,
            "byteLength": 102264,
            "target": 34963
        }
    ],
    "images": [
        {
            "uri": "textures/image_0.png"
        }
    ],
    "materials": [
        {
            "name": "51",
            "pbrMetallicRoughness": {
                "baseColorTexture": {
                    "index": 0
                },
                "metallicFactor": 0.0
            },
            "doubleSided": true
        }
    ],
    "meshes": [
        {
            "name": "meshes[0]",
            "primitives": [
                {
                    "mode": 4,
                    "material": 0,
                    "indices": 4,
                    "attributes": {
                        "POSITION": 0,
                        "NORMAL": 1,
                        "TEXCOORD_0": 2,
                        "COLOR_0": 3
                    }
                }
            ]
        }
    ],
    "nodes": [
        {
            "name": "human_male",
            "children": [
                1
            ]
        },
        {
            "name": "root",
            "children": [
                2
            ],
            "extras": {
                "name": "root"
            }
        },
        {
            "name": "mesh_id27",
            "matrix": [
                0.04241519048810005,
                0.0,
                0.0,
                0.0,
                0.0,
                0.038693804293870926,
                0.0,
                0.0,
                0.0,
                0.0,
                0.038693804293870926,
                0.0,
                0.013694947585463524,
                0.019788460806012154,
                0.481880247592926,
                1.0
            ],
            "mesh": 0
        }
    ],
    "samplers": [
        {
            "magFilter": 9729,
            "minFilter": 9985
        }
    ],
    "scenes": [
        {
            "nodes": [
                0
            ]
        }
    ],
    "textures": [
        {
            "source": 0,
            "sampler": 0
        }
    ],
    "scene": 0
}